<svg xmlns="http://www.w3.org/2000/svg" viewBox="0 0 50 50" width="50" height="50" preserveAspectRatio="xMidYMid meet" style="width: 100%; height: 100%; transform: translate3d(0px, 0px, 0px);"><defs><clipPath id="__lottie_element_19"><rect width="50" height="50" x="0" y="0"></rect></clipPath></defs><g clip-path="url(#__lottie_element_19)"><g transform="matrix(1,0,0,1,0,6)" opacity="1" style="display: block;"><g opacity="1" transform="matrix(1,0,0,1,0,0)"><path stroke-linecap="round" stroke-linejoin="miter" fill-opacity="0" stroke-miterlimit="10" stroke="rgb(0,0,0)" stroke-opacity="1" stroke-width="3" d=" M48.5,10.110148429870605 C48.5,10.110148429870605 48.5,27.87813377380371 48.5,27.87813377380371"></path></g><g opacity="1" transform="matrix(1,0,0,1,0,0)"><path stroke-linecap="round" stroke-linejoin="miter" fill-opacity="0" stroke-miterlimit="10" stroke="rgb(0,0,0)" stroke-opacity="1" stroke-width="4" d=" M43,16.05507469177246 C43,16.05507469177246 43,21.94492530822754 43,21.94492530822754"></path></g><g opacity="1" transform="matrix(1,0,0,1,0,0)"><path stroke-linecap="round" stroke-linejoin="miter" fill-opacity="0" stroke-miterlimit="10" stroke="rgb(0,0,0)" stroke-opacity="1" stroke-width="4" d=" M37,12.944925308227539 C37,12.944925308227539 37,25.05507469177246 37,25.05507469177246"></path></g><g opacity="1" transform="matrix(1,0,0,1,0,0)"><path stroke-linecap="round" stroke-linejoin="miter" fill-opacity="0" stroke-miterlimit="10" stroke="rgb(0,0,0)" stroke-opacity="1" stroke-width="4" d=" M31,3.8898513317108154 C31,3.8898513317108154 31,34.11014938354492 31,34.11014938354492"></path></g><g opacity="1" transform="matrix(1,0,0,1,0,0)"><path stroke-linecap="round" stroke-linejoin="miter" fill-opacity="0" stroke-miterlimit="10" stroke="rgb(0,0,0)" stroke-opacity="1" stroke-width="4" d=" M25,10.110148429870605 C25,10.110148429870605 25,27.889850616455078 25,27.889850616455078"></path></g><g opacity="1" transform="matrix(1,0,0,1,0,0)"><path stroke-linecap="round" stroke-linejoin="miter" fill-opacity="0" stroke-miterlimit="10" stroke="rgb(0,0,0)" stroke-opacity="1" stroke-width="4" d=" M19,15.8660888671875 C19,15.8660888671875 19,22.122194290161133 19,22.122194290161133"></path></g><g opacity="1" transform="matrix(1,0,0,1,0,0)"><path stroke-linecap="round" stroke-linejoin="miter" fill-opacity="0" stroke-miterlimit="10" stroke="rgb(0,0,0)" stroke-opacity="1" stroke-width="4" d=" M13,12.944925308227539 C13,12.944925308227539 13,25.05507469177246 13,25.05507469177246"></path></g><g opacity="1" transform="matrix(1,0,0,1,0,0)"><path stroke-linecap="round" stroke-linejoin="miter" fill-opacity="0" stroke-miterlimit="10" stroke="rgb(0,0,0)" stroke-opacity="1" stroke-width="4" d=" M7,3.8898513317108154 C7,3.8898513317108154 7,34.11014938354492 7,34.11014938354492"></path></g><g opacity="1" transform="matrix(1,0,0,1,0,0)"><path stroke-linecap="round" stroke-linejoin="miter" fill-opacity="0" stroke-miterlimit="10" stroke="rgb(0,0,0)" stroke-opacity="1" stroke-width="3" d=" M1.5,10.110148429870605 C1.5,10.110148429870605 1.5,27.889850616455078 1.5,27.889850616455078"></path></g></g></g></svg>
